<?xml version="1.0" encoding="UTF-8" standalone="no"?>
<!DOCTYPE svg PUBLIC "-//W3C//DTD SVG 1.1//EN" "http://www.w3.org/Graphics/SVG/1.1/DTD/svg11.dtd">
<svg width="100%" height="100%" viewBox="0 0 753 397" version="1.1" xmlns="http://www.w3.org/2000/svg" xmlns:xlink="http://www.w3.org/1999/xlink" xml:space="preserve" xmlns:serif="http://www.serif.com/" style="fill-rule:evenodd;clip-rule:evenodd;">
    <g transform="matrix(1,0,0,1,-77.5454,-3.551)">
        <path d="M221.295,114.085C221.295,99.58 226.49,87.132 236.879,76.743C247.268,66.354 259.716,61.159 274.222,61.159C288.727,61.159 301.175,66.354 311.564,76.743C321.953,87.132 327.148,99.58 327.148,114.085C327.148,128.591 321.953,141.038 311.564,151.428C301.175,161.817 288.727,167.011 274.222,167.011C264.616,167.011 255.795,164.561 247.759,159.661C239.722,154.956 233.253,148.585 228.352,140.548C223.648,132.707 221.295,123.886 221.295,114.085ZM556.494,114.085C556.494,99.58 561.689,87.132 572.078,76.743C582.467,66.354 594.915,61.159 609.42,61.159C623.926,61.159 636.374,66.354 646.763,76.743C657.152,87.132 662.347,99.58 662.347,114.085C662.347,128.591 657.152,141.038 646.763,151.428C636.374,161.817 623.926,167.011 609.42,167.011C599.815,167.011 590.994,164.561 582.957,159.661C574.92,154.956 568.452,148.585 563.551,140.548C558.847,132.707 556.494,123.886 556.494,114.085Z" style="fill-opacity:0.1;fill-rule:nonzero;"/>
        <path d="M454.045,227.21C528.142,227.21 596.26,236.815 658.399,256.026C720.734,275.432 778.071,303.071 830.409,338.943L830.409,400.102C811.003,385.989 787.088,372.757 758.665,360.408C730.438,348.254 699.368,337.571 665.456,328.358C631.74,319.145 596.848,311.892 560.78,306.599C524.712,301.503 489.134,298.955 454.045,298.955C407.392,298.955 360.053,303.463 312.027,312.48C264.001,321.497 219.406,333.651 178.241,348.94C137.077,364.23 103.557,381.284 77.682,400.102L77.682,338.943C130.02,303.071 187.259,275.432 249.398,256.026C311.733,236.815 379.949,227.21 454.045,227.21Z" style="fill-opacity:0.1;fill-rule:nonzero;"/>
        <path d="M133,38.5C235.4,53.7 299.333,28.5 318.5,14" style="fill:none;fill-rule:nonzero;stroke:black;stroke-opacity:0.1;stroke-width:25px;"/>
        <path d="M739,38.324C636.324,53.414 572.218,28.396 553,14" style="fill:none;fill-rule:nonzero;stroke:black;stroke-opacity:0.1;stroke-width:25px;"/>
    </g>
</svg>
